<svg width="72" height="31" viewBox="0 0 72 31" fill="none" xmlns="http://www.w3.org/2000/svg">
  <path d="M3.45727 0.0864305C4.72493 0.0288102 5.96379 0 7.17383 0C8.41268 0 9.70915 0.129648 11.0632 0.388942C12.4462 0.648237 13.8002 1.13802 15.1255 1.85828C16.4796 2.54973 17.6176 3.45726 18.5396 4.58087C19.4903 5.67567 20.2538 7.13061 20.83 8.94567C21.4062 10.7607 21.6943 12.9647 21.6943 15.5577C21.6943 18.1506 21.2622 20.4843 20.3979 22.5586C19.5624 24.6042 18.4099 26.1744 16.9406 27.2692C14.0883 29.4011 10.6455 30.4671 6.61201 30.4671C5.2003 30.4671 3.71656 30.4095 2.16079 30.2943H0V0.0864305H3.45727ZM3.58691 29.9485C4.19194 30.0062 4.95541 30.035 5.87735 30.035C6.79929 30.035 7.49074 30.0206 7.95171 29.9918C8.41267 29.963 9.04651 29.8477 9.8532 29.646C10.6599 29.4156 11.409 29.113 12.1004 28.7385C12.7919 28.364 13.5121 27.8166 14.2612 27.0963C15.0391 26.3472 15.7017 25.4685 16.2491 24.4601C17.488 22.0977 18.1074 19.0149 18.1074 15.212C18.1074 12.5038 17.7761 10.1701 17.1135 8.211C16.4508 6.22307 15.6873 4.75374 14.823 3.80299C13.9875 2.85224 12.9647 2.10317 11.7547 1.55577C10.5447 0.979557 9.5795 0.648236 8.85924 0.561806C8.13897 0.475374 7.30347 0.432158 6.35272 0.432158C5.40197 0.432158 4.48004 0.475374 3.58691 0.561806V29.9485Z" fill="#69AE96" />
  <path d="M37.5576 30.4671C34.5325 30.4671 32.0692 29.6028 30.1677 27.8742C28.2662 26.1456 27.3154 23.4806 27.3154 19.8793C27.3154 16.2779 28.295 13.4833 30.2541 11.4954C32.242 9.50748 34.7485 8.51351 37.7737 8.51351C40.8276 8.51351 43.3053 9.37783 45.2068 11.1065C47.1083 12.8351 48.059 15.5001 48.059 19.1014C48.059 22.7027 47.065 25.4973 45.0771 27.4852C43.118 29.4732 40.6115 30.4671 37.5576 30.4671ZM37.8601 8.85924C35.6705 8.85924 33.8554 9.8388 32.4149 11.7979C30.9744 13.7282 30.2541 16.4364 30.2541 19.9225C30.2541 23.3797 30.9167 25.9439 32.242 27.6149C33.5673 29.2859 35.3248 30.1214 37.5144 30.1214C39.704 30.1214 41.519 29.1563 42.9595 27.226C44.4001 25.2668 45.1203 22.5586 45.1203 19.1014C45.1203 15.6153 44.4577 13.0368 43.1324 11.3658C41.8071 9.69474 40.0497 8.85924 37.8601 8.85924Z" fill="#69AE96" />
  <path d="M56.165 19.7496C56.165 23.3221 56.7844 25.9439 58.0233 27.6149C59.291 29.2859 60.9476 30.1214 62.9931 30.1214C65.8742 30.1214 68.4383 29.6893 70.6855 28.8249L70.8152 29.1274C68.5103 30.0206 65.903 30.4671 62.9931 30.4671C60.112 30.4671 57.764 29.6028 55.9489 27.8742C54.1339 26.1456 53.2263 23.4806 53.2263 19.8793C53.2263 16.2779 54.1771 13.4833 56.0786 11.4954C57.9801 9.50748 60.4002 8.51351 63.3388 8.51351C65.7013 8.51351 67.6892 9.21937 69.3026 10.6311C70.916 12.0428 71.7227 14.1316 71.7227 16.8974C71.7227 17.0414 71.7227 17.1855 71.7227 17.3295H56.2947C56.2082 18.1074 56.165 18.9141 56.165 19.7496ZM68.784 16.9838C68.7552 14.218 68.2222 12.1724 67.185 10.8472C66.1479 9.52188 64.8082 8.85924 63.166 8.85924C61.5238 8.85924 60.0544 9.5795 58.758 11.02C57.4903 12.4606 56.6836 14.4485 56.3379 16.9838H68.784Z" fill="#69AE96" />
</svg>