<svg width="88" height="34" viewBox="0 0 88 34" fill="none" xmlns="http://www.w3.org/2000/svg">
  <path d="M2.94483 3.18108V2.74892H10.6372V27.2955C10.6372 29.5715 10.1763 31.0985 9.25434 31.8764C8.3324 32.6254 6.93509 33 5.0624 33C3.21853 33 1.57633 32.7263 0.135803 32.1789L0.265451 31.8332C1.64836 32.3806 3.07448 32.6543 4.54381 32.6543C5.52337 32.6543 6.17161 32.2365 6.48852 31.401C6.83425 30.5655 7.00711 29.2114 7.00711 27.3387V3.18108H2.94483Z" fill="black" />
  <path d="M27.3604 33.1728C24.3353 33.1728 21.872 32.3085 19.9705 30.5799C18.069 28.8513 17.1183 26.1863 17.1183 22.585C17.1183 18.9837 18.0978 16.189 20.0569 14.2011C22.0449 12.2132 24.5514 11.2192 27.5765 11.2192C30.6304 11.2192 33.1081 12.0835 35.0096 13.8122C36.9111 15.5408 37.8618 18.2058 37.8618 21.8071C37.8618 25.4084 36.8679 28.203 34.88 30.191C32.9208 32.1789 30.4143 33.1728 27.3604 33.1728ZM27.6629 11.5649C25.4733 11.5649 23.6583 12.5445 22.2177 14.5036C20.7772 16.4339 20.0569 19.1421 20.0569 22.6282C20.0569 26.0855 20.7196 28.6496 22.0449 30.3206C23.3701 31.9916 25.1276 32.8271 27.3172 32.8271C29.5068 32.8271 31.3219 31.862 32.7624 29.9317C34.2029 27.9725 34.9232 25.2644 34.9232 21.8071C34.9232 18.321 34.2605 15.7425 32.9352 14.0715C31.61 12.4004 29.8525 11.5649 27.6629 11.5649Z" fill="black" />
  <path d="M60.3357 33C59.1545 33 58.247 32.7407 57.6131 32.2221C57.0081 31.7035 56.6912 31.1849 56.6624 30.6663L56.6192 29.9317V16.3619C56.6192 14.0859 56.0142 12.6309 54.8041 11.9971C54.2279 11.709 53.4932 11.5649 52.6001 11.5649C50.8139 11.5649 49.2005 12.2996 47.7599 13.7689C46.3482 15.2095 45.6424 16.5059 45.6424 17.6584V33H42.6173V0.631348H45.6424V16.3187C46.1033 15.0798 46.9821 13.9274 48.2785 12.8614C49.575 11.7666 51.0299 11.2192 52.6433 11.2192C55.438 11.2192 57.2962 11.709 58.2182 12.6886C59.1689 13.6393 59.6443 14.8782 59.6443 16.4051V29.9317C59.6443 30.7672 59.8027 31.4154 60.1197 31.8764C60.4654 32.3085 60.7967 32.539 61.1136 32.5678L61.6322 32.6543H62.9719V33H60.3357Z" fill="black" />
  <path d="M85.0177 33C83.8365 33 82.9289 32.7407 82.2951 32.2221C81.6901 31.7035 81.3732 31.1849 81.3444 30.6663L81.3011 29.9317V16.3619C81.3011 14.0859 80.7105 12.6309 79.5293 11.9971C78.9243 11.709 78.1752 11.5649 77.2821 11.5649C75.4382 11.5649 73.7816 12.2996 72.3123 13.7689C70.8429 15.2095 70.1083 16.5059 70.1083 17.6584V33H67.0831V11.3921H70.1083V16.3187C70.598 15.0798 71.5056 13.9274 72.8308 12.8614C74.1561 11.7666 75.6111 11.2192 77.1956 11.2192C78.7802 11.2192 80.0623 11.3777 81.0418 11.6946C82.0502 11.9827 82.7849 12.4004 83.2458 12.9478C83.9661 13.841 84.3262 14.9934 84.3262 16.4051V29.9317C84.3262 30.7672 84.4847 31.4154 84.8016 31.8764C85.1473 32.3085 85.4931 32.539 85.8388 32.5678L86.3142 32.6543H87.6539V33H85.0177Z" fill="black" />
</svg>